<svg xmlns="http://www.w3.org/2000/svg" width="1321.827" height="1889.101" viewBox="0 0 1321.827 1889.101">
  <g id="Group_3" data-name="Group 3" transform="translate(13577.5 -6748.5)">
    <g id="pose_sitting_mid-2" data-name="pose/sitting/mid-2" transform="translate(-13577.5 7142.996)">
      <path id="_Skin" data-name="âœ‹ Skin" d="M352.548,1482.6h-.334c-13.261,0-26.027-.331-37.943-.982a424.434,424.434,0,0,1-45.788-4.739c-16.654-2.768-30.154-6.531-40.125-11.184a52.36,52.36,0,0,1-13.718-8.849,24.468,24.468,0,0,1-7.237-11.469,58.275,58.275,0,0,1-7.5-29.908,46.732,46.732,0,0,1,2.809-15.269,34.454,34.454,0,0,1,8.158-12.75,110.683,110.683,0,0,1,3.234-47.726A116.42,116.42,0,0,1,223.329,1317a109.6,109.6,0,0,1,13.941-20.249l.05.075c8.845-13.268,14.567-22.936,18.552-31.346,4.487-9.47,6.957-17.754,7.772-26.069.823-8.394-.016-17.015-2.64-27.132-2.405-9.274-6.317-19.925-12.684-34.536-4.678-.179-9.595-.352-13.933-.5-18.508-.651-37.645-1.325-56.424-2.916-10.116-.857-19.282-1.9-28.021-3.195-9.823-1.453-18.847-3.178-27.586-5.272l1.53-9.159c-1.455-.386-9.214-2.426-10.91-2.866.045.342.126.925.23,1.663l.008.057,0,.015c.423,3.018,1.13,8.069,1.108,9.3a7.23,7.23,0,0,1-4.712,2.34,2.613,2.613,0,0,1-2.677-2.422c-15.17-64.947-29.651-130.262-43.655-193.427-9.766-44.051-19.864-89.6-30.138-134.765-1.669-7.076-3.407-14.262-5.247-21.87-6.644-27.476-14.175-58.619-19.685-90.1C1.876,688.429-.75,657.652.183,630.538c.267-7.758.836-15.327,1.693-22.494A216.522,216.522,0,0,1,5.549,586.4a177.665,177.665,0,0,1,5.9-20.57,150.689,150.689,0,0,1,8.386-19.278,134.613,134.613,0,0,1,11.119-17.765,129.208,129.208,0,0,1,14.1-16.033,135.013,135.013,0,0,1,17.334-14.08A153.344,153.344,0,0,1,83.212,486.77L80.55,475.392c-7.12,0-9.981-7.77-13.245-18.749-6.557-17.7-4.969-36.768,4.721-56.663a132.506,132.506,0,0,1,15.986-24.748A189.693,189.693,0,0,1,107.5,354.555c36.016-36.116,69.257-76.2,101.4-114.971l.382-.461c22.643-27.575,44.968-54.524,69.113-81.051,28.28-31.07,54.4-56.37,79.864-77.344a474.953,474.953,0,0,1,44-32.373c7.667-4.951,15.414-9.577,23.024-13.752,7.887-4.326,15.863-8.3,23.709-11.8,8.11-3.623,16.317-6.855,24.4-9.607a257.709,257.709,0,0,1,25.084-7.166,238.359,238.359,0,0,1,25.775-4.48,227.507,227.507,0,0,1,62.425,1.307l-.539,6.6c5.731.722,11.636,1.644,17.346,2.535l.016,0c13.271,2.072,26.99,4.215,40.485,4.215a103.422,103.422,0,0,0,18.7-1.586,240.723,240.723,0,0,1,41.04-3.5A253.533,253.533,0,0,1,811.131,35.175,240.747,240.747,0,0,1,858.01,64.126,221.665,221.665,0,0,1,896.7,103.37l1.957-13.007c.184-1.227.621-2.362,2.561-2.362l.158,0c2.419,0,3.712,1.976,4.658,3.91a157.906,157.906,0,0,1,30.448,16.173,184.8,184.8,0,0,1,26.372,21.884A237.539,237.539,0,0,1,985.6,156.372a320.5,320.5,0,0,1,19.566,29.743c10.772,18.432,21.04,39.611,31.392,64.746,9.045,21.961,17.026,44.212,24.068,63.844l.056.157c1.624,4.526,3.157,8.8,4.7,13.057a72.889,72.889,0,0,1,2.711,14.137,10.993,10.993,0,0,1-.346,4.452l-5.333,3.183c25.154,33.522,47.052,72.612,66.947,119.5,18.008,42.445,32.266,86.258,44.99,127.281a111.224,111.224,0,0,1,4.9,15.617,48.7,48.7,0,0,1,1.295,13.493,30.683,30.683,0,0,1-3.026,11.83,36.508,36.508,0,0,1-8.057,10.628,415.71,415.71,0,0,1,65.936,48.59c20.574,18.792,37.14,38.557,49.237,58.746a183.282,183.282,0,0,1,15.536,32.611,151.763,151.763,0,0,1,7.976,34.466,142.5,142.5,0,0,1-.712,36.093,151.321,151.321,0,0,1-3.966,18.585,166.484,166.484,0,0,1-6.561,18.906,224.287,224.287,0,0,1-20.98,30.988,297.163,297.163,0,0,1-26.424,28.661c-9.25,8.85-19.643,17.789-30.892,26.566-10.454,8.158-22.022,16.47-34.383,24.7-21.355,14.225-46,28.863-75.334,44.75-25.922,14.037-52.185,27.28-77.584,40.087l-.014.007c-15.555,7.844-30.247,15.252-44.581,22.691-15.122,8.207-32.418,14.994-50.73,22.178l-.01,0c-16.92,6.639-34.417,13.5-50.9,21.841a223.787,223.787,0,0,0-23.806,13.781,151.839,151.839,0,0,0-21.221,16.972,30.252,30.252,0,0,1-4.361,5.181c-1.656,1.524-3.106,2.329-4.191,2.33a2.082,2.082,0,0,1-.276-.018,4.484,4.484,0,0,1-.655.048h0c-2.873,0-6.1-2.746-9.6-8.162-3.956-6.123-8.19-15.5-12.586-27.873-3.789-10.665-7.567-23.236-10.927-36.356-6.385-24.935-9.917-46.58-8.216-50.349a112.49,112.49,0,0,1-19.569,4.874c-6.665,1.109-13.551,1.844-20.211,2.554l-.029,0c-7.293.778-14.831,1.582-22.077,2.876a26.128,26.128,0,0,0,1.9,3.222c2.265,3.471,4.832,7.4,1.445,10.788.27,12.078-1.34,26.306-4.785,42.288a55.659,55.659,0,0,1,8.727-.767c5.7,0,8.85,1.24,9.449,2.469a.927.927,0,0,1-.047.949c-.6.952-2.71,1.52-5.657,1.52a45.529,45.529,0,0,1-12.1-2.036l-.249,2.336c-.735,6.872-2.1,19.663-2.664,24.868a43.972,43.972,0,0,1,16.123-3.282c4.6,0,8.032.987,9.921,2.853-.65,2.1-2.94,3.071-7.207,3.071a75.394,75.394,0,0,1-7.759-.581h-.007l-.119-.013a73,73,0,0,0-7.456-.568,13.283,13.283,0,0,0-3.592.393c-2.527,18.776-3.984,37.675-5.392,55.953-.78,10.126-1.587,20.6-2.568,30.951a86.345,86.345,0,0,0,16.36,11.966c5.879,3.425,12.167,6.47,18.248,9.415,6.849,3.317,13.931,6.747,20.38,10.7a87.262,87.262,0,0,1,9.233,6.45,62.137,62.137,0,0,1,8.115,7.782,38.217,38.217,0,0,1,10.366,30.119,39.136,39.136,0,0,1-1.523,7.758,38.018,38.018,0,0,1-3.087,7.308,36.288,36.288,0,0,1-10.782,12.1,20.929,20.929,0,0,1,4.825,10.724,24.986,24.986,0,0,1-1.134,11.5,27.211,27.211,0,0,1-6.79,10.807,23.385,23.385,0,0,1-11.24,6.144,71.937,71.937,0,0,1-16.561,1.822c-16.033,0-32.262-4.506-47.956-8.865l-.381-.106c-1.216-.338-2.474-.687-3.7-1.025-37.094-12.237-75.938-31.311-118.751-58.313a83.819,83.819,0,0,1-35.545-46.771c-43.422-134.06-55.043-225.225-34.54-270.963,6.789-5.137,14.025-5.453,21.022-5.759,5.138-.225,9.988-.436,14.52-2.466a21.207,21.207,0,0,0,7.293-4.939c2.479-2.658,4.519-6.405,6.239-11.455-16.877-1.66-35.824-1.9-55.884-2.146-23.211-.289-47.211-.588-69.409-3.184a208.168,208.168,0,0,1-31.578-5.9,127.9,127.9,0,0,1-14.123-4.778,93.938,93.938,0,0,1-12.675-6.282l1.589-3.387c-2.958-1.892-8.531-8.17-12.6-12.754-1.724-1.942-3.209-3.616-4.224-4.659,3.3,39.775,6.106,78.314,8.338,114.546,2.456,39.859,4.306,78.331,5.5,114.347,8.207,13.83,15.293,28.351,23.045,44.534l.258.253c5.4,5.305,14.427,14.184,9,20.084l.011.025c1.9,4.461,46.65,109.862,60.543,163.766a12.657,12.657,0,0,1,8.649,4.146,28.691,28.691,0,0,1,5.831,9.7,59.744,59.744,0,0,1,3.2,12.449,68.6,68.6,0,0,1,.769,12.38c-2.041,27.525-37.123,30.584-68.075,33.283l-.525.046a620.8,620.8,0,0,1-64.687,3.393h-.329Zm552.777-472.273a6.22,6.22,0,0,0-4.434,1.835,6.367,6.367,0,0,0-1.849,4.553l6.283-.02ZM351.093,607.643l-6.855,9.589c16.771,17.6,32.35,35.475,46.305,53.141l10.6-4.875c-5.121-26.09-21.024-44.474-50.046-57.854ZM894.619,394.72l-5.877,10.615c-11.068,20-24.422,39.67-37.336,58.7-28.509,42-57.987,85.43-67.065,137.368-1.047,6.384-1.509,28.967-1.514,29.194l8.45-3.445c28.22-11.507,58.156-20.064,87.106-28.34l.072-.021c11.156-3.189,22.693-6.486,34.033-9.926,4.615-1.236,9.206-2.682,13.647-4.08l.008,0,.008,0c10.781-3.393,20.961-6.6,31.666-7.141l3.26-.167,1.632-2.828c6.7-11.614,8.593-23.855,5.793-37.422-2.525-12.237-8.593-24.211-14.773-35.326-7.608-16.6-17.392-32.2-26.854-47.289l-.012-.019c-9.812-15.641-19.958-31.814-27.374-48.748ZM329.652,366.978h0l-8.806,4.942c-11.82,6.634-21.632,11.166-30.879,14.263l-13.6,4.552,12.787,6.488a125.356,125.356,0,0,1,25.248,17.184l6.409,5.525,3.093-7.876c4.062-10.348,6.039-22.117,5.875-34.98l-.131-10.1Z" transform="translate(5 8.004)" fill="#d08b5b"/>
      <path id="_Shoes" data-name="ðŸ‘Ÿ Shoes" d="M138.737,492.283c-22.786,0-43.393-1.278-59.593-3.7-15.264-2.278-28.809-6.268-40.26-11.858a85.248,85.248,0,0,1-23.332-16.357C4.73,449.445,2.145,439.662,2.144,439.588c-.173-.852-.338-1.648-.5-2.417l-.02-.1c-2.894-13.987-2.894-13.987,8.2-40.717l.319-.768c1.809-4.359,2.111-9.387,2.493-15.753a133.333,133.333,0,0,1,2.272-19.67,109.721,109.721,0,0,1,9.236-26.577c9.139-18.694,39.867-71.51,40.176-72.041A81.138,81.138,0,0,0,68.7,248.933a32.837,32.837,0,0,0,.6-13.3,71.472,71.472,0,0,1,14.812-8.711,124.323,124.323,0,0,1,18.667-6.562,162.834,162.834,0,0,1,20.776-4.138,160.542,160.542,0,0,1,21.14-1.44,115,115,0,0,1,22.859,2.107,57.434,57.434,0,0,1,18.175,6.614,10.74,10.74,0,0,0,3.163,5.1,8.35,8.35,0,0,0,4.727,2.1,27.476,27.476,0,0,1,3.237,4.747c1.513,2.588,3.078,5.264,5.774,6.773,6.936,22.957,18,49.7,29.72,78.006,16.312,39.412,33.179,80.165,39.787,113.364-.152.049-.235.119-.254.215-.065.337.689.969,1.831,1.925,2.64,2.212,7.553,6.329,9.423,12.859a25.088,25.088,0,0,1,.772,7.642,46.438,46.438,0,0,1-1.006,7.979c-1.03,4.846-2.684,8.966-3.766,9.38a200.736,200.736,0,0,1-28.606,8.168c-10.485,2.275-22.25,4.241-34.967,5.844-12.173,1.534-25.053,2.715-38.282,3.512C164.368,491.889,151.4,492.283,138.737,492.283Zm412.8-81.732c-7.857,0-17.472-1.238-28.578-3.681-9.4-2.068-18.068-4.579-24.395-6.413l-.047-.014-.584-.168-1.149-.326a594.655,594.655,0,0,1-59.347-24.673,635.708,635.708,0,0,1-56.554-30.448,45.632,45.632,0,0,1-11.065-9.28,79.78,79.78,0,0,1-9.112-12.732,131.337,131.337,0,0,1-12.072-28.279c-2.618-9.329-5.377-18.907-8.044-28.17l-.006-.02c-10.787-37.455-21.941-76.184-28.79-115.02a427.71,427.71,0,0,1-6.528-58.417c-.378-9.965-.318-19.807.178-29.252a283.609,283.609,0,0,1,3.035-29.21c1.046-1.49,7.814-5.026,17.244-9.01A279.06,279.06,0,0,1,358.89,13.846c2.431-.666,4.86-3.261,7.208-5.77,2.451-2.619,4.766-5.092,7.045-5.489C383.007.871,395.142,0,409.211,0c12.666,0,24.478.681,33.1,1.178h.014c4.75.274,8.5.49,10.808.5l-.959,1.63c-1.464,2.516-5.446,12.675-8.451,25.828a148.16,148.16,0,0,0-3.36,21.622,95.225,95.225,0,0,0,.779,22.83A46.862,46.862,0,0,0,447.3,90.46,44.173,44.173,0,0,0,457.761,102.1c6.733,5.281,15.347,9.167,25.6,11.55a41.406,41.406,0,0,0,8.7,1.044,23.607,23.607,0,0,0,9.59-1.929,58.484,58.484,0,0,0,8.425-4.8,99.981,99.981,0,0,1,13.061-7.374c-.007.181.666.4,1.685.726a23.238,23.238,0,0,1,7.322,3.478,8.052,8.052,0,0,1,2.992,8.8c-2.315,9.554-5.487,29.066-8.845,49.724-2.394,14.726-4.869,29.952-7.154,42.276-.972,5.244-1.932,9.9-2.778,14.017-1.77,8.6-3.168,15.388-3.571,21.978a62.507,62.507,0,0,0,2.349,21.005c3.288,12.112,28.507,27.09,48.772,39.125,10.782,6.4,20.093,11.933,24.228,15.875,4.635,4.419,6.986,11.437,6.988,20.859,0,7.664-1.538,16.893-4.577,27.431a211.252,211.252,0,0,1-8.947,24.668,111.448,111.448,0,0,1-6.121,12.572,22.146,22.146,0,0,1-10.168,5.769A50.5,50.5,0,0,1,551.54,410.552Z" transform="translate(205.856 994.416)" fill="#fff"/>
      <path id="_Top" data-name="ðŸ‘• Top" d="M320.727,0c1.449.139,2.782.294,4.117.461l1.423.178-.631,1.288c-16.943,73.553-13.656,124.4,6.836,172.315C356,229.267,395.265,265.908,442.18,278.766c45.361,12.432,95.049-5.391,136.281-42.277C613.767,204.905,643.7,88.356,643.7,88.356c6.21,2.735,28.189,12.878,33.936,16.357,58.632,50.434,102.841,151.278,124,219.962.127.411.253.823.368,1.229l-1.267.093c-9.8.761-50.768,5.034-95.733,32-21.018,12.606-61,56-61,56l-7-11s30.107-55.7,21-50c-15.962,9.991-121.012,180.906-137,254-1.38,6.307.142,36.45.142,36.45.093.458-1.565,28.739-9.142,45.55-19.566,43.41-63.4,106.423-105.552,130.17-43.478,20.057-90.674-2.134-128.567-24.844l-2.308-1.391c-.147-.089-.294-.178-.436-.27,0,0-7.3-34.458-8.137-48.666-.76-12.84.3-25.2,0-35-.7-22.711-2.5-36.282-6.808-43.234C258.237,655.741,253.547,628.852,224,597c-14.023-15.117-48.685-30.309-63.374-47.285-46.754-54.037-88.166-112.224-94.579-119l-1.68-1.761.156-.559c4.493-16.272,5.4-40.561.425-57.309l4.375-2.835c21.459-13.957,67.8-46.1,103.142-81.841,10.979-11.1,11.472-31.7,4.47-24.94-.231.223-.464.443-.706.651l-.692-.63C127.055,217.48,60,193,2.351,190.168c-.787-.039-1.575.05-2.351.079l1.551-1.777c21.3-24.365,43.307-53.146,66.507-75.549C134.21,48.322,226.077,1.654,320.727,0Z" transform="translate(265 5.004)" fill="#ffba01"/>
      <path id="_Ink" data-name="ðŸ– Ink" d="M359.221,1494.6a629.123,629.123,0,0,1-81.626-5.358,174.9,174.9,0,0,1-20.142-2.832,102.793,102.793,0,0,1-19.417-5.89,65.122,65.122,0,0,1-16.919-10.276,52.408,52.408,0,0,1-12.645-15.99A61.671,61.671,0,0,1,202.28,1439a64.417,64.417,0,0,1-2.124-16.816,53.048,53.048,0,0,1,2.64-16.46,40.6,40.6,0,0,1,8.1-14.195,110.844,110.844,0,0,1-.585-24.141,119.69,119.69,0,0,1,4.469-23.747,124.8,124.8,0,0,1,22.256-42.68.654.654,0,0,0,.2.03,1.152,1.152,0,0,0,.971-.831c-.024.023-.038.032-.046.032a.006.006,0,0,1-.005,0c0-.007,0-.026.009-.061a8.171,8.171,0,0,0-1.129.831.374.374,0,0,1-.289-.376c.024-.331.53-.769,1.879-1a4,4,0,0,1-.285.406c-.043.055-.082.1-.124.164a3.685,3.685,0,0,1,2.07-.73,11.807,11.807,0,0,0-1.661.159c7.473-11.552,13.312-20.962,17.513-29.345a93.623,93.623,0,0,0,5.12-12.048,59.7,59.7,0,0,0,2.7-11.45c.983-7.544.4-15.351-1.849-24.569-2.075-8.519-5.619-18.561-11.493-32.558q-4.981-.184-10.192-.365c-19.392-.683-39.444-1.39-59.1-3.139-10.589-.942-20.185-2.1-29.335-3.542-10.28-1.619-19.727-3.55-28.881-5.9a11.17,11.17,0,0,1-7.034,2.557,8.784,8.784,0,0,1-5.3-1.672,9.051,9.051,0,0,1-3.329-5.346c-15.05-64.408-29.6-130.044-43.675-193.519-9.793-44.173-19.92-89.85-30.133-134.744-2.258-10.051-4.7-20.385-7.293-31.327-6.548-27.671-13.969-59.034-19.167-90.081C1.231,687.019-.986,656.861.4,630.329c.395-7.572,1.1-14.967,2.084-21.98a207.223,207.223,0,0,1,4.087-21.178A174.019,174.019,0,0,1,12.9,566.982a152.013,152.013,0,0,1,8.828-19.015,138.451,138.451,0,0,1,26.12-33.756,148.947,148.947,0,0,1,17.783-14.369A171.563,171.563,0,0,1,86.893,487.4c-5.4,0-9.623-2.517-12.917-7.7-2.852-4.487-4.567-10.253-6.079-15.34-.409-1.375-.795-2.674-1.192-3.912a70.6,70.6,0,0,1-2.833-15.037,71.483,71.483,0,0,1,.406-14.654,88.751,88.751,0,0,1,8.745-27.78c7.68-15.531,20.039-31.28,36.731-46.809,16.1-16.162,33.053-34.533,51.83-56.163,16.743-19.287,33.356-39.326,49.422-58.7,14.186-17.111,28.856-34.8,43.566-51.923,16.5-19.2,31.29-35.609,45.229-50.181,16.728-17.486,32.61-32.759,48.553-46.691,8.638-7.548,17.4-14.779,26.043-21.492,9.064-7.04,18.315-13.757,27.5-19.964a332.058,332.058,0,0,1,36.075-20.864,310.8,310.8,0,0,1,38.737-16.116A276.52,276.52,0,0,1,517.2,3.681,240.209,240.209,0,0,1,558.529,0a212.647,212.647,0,0,1,36.259,3.071,197.5,197.5,0,0,1,35.6,9.657.736.736,0,0,1,.514.841.727.727,0,0,1-.717.621.916.916,0,0,1-.2-.023,212.943,212.943,0,0,0-36.78-4.66c6.15.752,12.347,1.731,18.339,2.677,12.548,1.981,25.52,4.029,38.405,4.029a103.757,103.757,0,0,0,18.045-1.492A260.949,260.949,0,0,1,763.3,16.67,255.326,255.326,0,0,1,813.812,32.72a242.908,242.908,0,0,1,45.956,26.372,231.088,231.088,0,0,1,39.295,36.387,8.708,8.708,0,0,1,3.058-5.671,8.6,8.6,0,0,1,5.438-1.8A10.348,10.348,0,0,1,916.474,93a128.945,128.945,0,0,1,26.611,13.123,164.036,164.036,0,0,1,23.781,18.742,223.881,223.881,0,0,1,21.165,23.152,311.727,311.727,0,0,1,18.764,26.353,504.151,504.151,0,0,1,31.187,57.468c9.176,19.507,17.285,39.006,24.165,55.753.774,2.856,2.572,7.688,4.849,13.806l0,.007c3.756,10.089,8.43,22.645,11.192,33.557a62.614,62.614,0,0,1,2.273,14.4,15.517,15.517,0,0,1-.694,5.065,5.52,5.52,0,0,1-2.295,3.056c6.437,8.829,12.746,18.165,18.751,27.746,5.755,9.183,11.413,18.882,16.817,28.828,10.115,18.615,19.523,38.318,28.762,60.236,8.008,19,15.8,39.461,23.806,62.561,6.332,18.257,12.716,37.856,20.7,63.549,2.986,8.063,6.109,17.546,6.637,26.744a38.812,38.812,0,0,1-1.334,13.221,32.7,32.7,0,0,1-6.671,12.245,434.252,434.252,0,0,1,38.338,26.266,331.336,331.336,0,0,1,34.821,30.81,257.628,257.628,0,0,1,29.274,35.757A221.587,221.587,0,0,1,1299.3,765.3a206.866,206.866,0,0,1,9.774,21.247,165.383,165.383,0,0,1,9.932,31.746,141.08,141.08,0,0,1,2.8,30.355,135.16,135.16,0,0,1-3.662,28.809,144.531,144.531,0,0,1-9.454,27.108c-7.826,16.912-19.133,33.229-33.606,48.5a263.709,263.709,0,0,1-48.739,39.838c-17.63,12.78-36.171,25.42-55.105,37.568-18.288,11.733-37.48,23.352-57.041,34.534-18.826,10.761-38.562,21.441-58.66,31.742-19.258,9.871-39.433,19.694-59.963,29.2-24.5,11.323-50.627,22.67-82.229,35.71-10.239,4.162-22.218,9.27-33.422,15.6-11.9,6.723-21.441,13.969-29.168,22.149a27.416,27.416,0,0,1-6.662,7.133,11.444,11.444,0,0,1-6.533,2.236c-6.009,0-12.209-5.559-18.432-16.524-5.177-9.123-10.279-21.775-15.164-37.6-3.863-12.516-7.531-26.972-10.33-40.7-2.35-11.532-3.856-21.428-3.929-25.827-9.763,2.939-20.316,4-30.521,5.02-5.242.526-10.663,1.069-15.869,1.861a10.809,10.809,0,0,1,1.478,5.522,10.4,10.4,0,0,1-1.749,5.688,172.461,172.461,0,0,1-3.359,33.8c.977-.087,1.936-.13,2.848-.13,4.224,0,7.819.923,10.4,2.67a8.014,8.014,0,0,1,3.806,5.875,6.567,6.567,0,0,1-1.811,5.005c-2.1,2.283-5.726,3.54-10.2,3.54a31.683,31.683,0,0,1-6.851-.82c-.22,2.049-.441,4.127-.655,6.137l-.013.125q-.275,2.593-.553,5.188a26.145,26.145,0,0,1,7.579-1.008,31.8,31.8,0,0,1,10.648,1.743c3.424,1.254,5.684,3.034,6.537,5.147a5.748,5.748,0,0,1-.051,4.264,14.908,14.908,0,0,1-3.781,5.246,17.362,17.362,0,0,1-7.956,1.682,57.222,57.222,0,0,1-6.613-.522l-.041,0a57.8,57.8,0,0,0-6.741-.527c-.441,0-.878.01-1.3.031-2.126,16.744-3.432,33.791-4.7,50.276v.005c-.712,9.289-1.448,18.894-2.324,28.37a91.826,91.826,0,0,0,15.14,10.456c5.38,3.05,11.108,5.821,16.648,8.5a229.641,229.641,0,0,1,20.874,10.995,88.134,88.134,0,0,1,9.539,6.748,64.85,64.85,0,0,1,8.449,8.241,46.217,46.217,0,0,1,9.413,15.554,45.524,45.524,0,0,1,2.187,8.609,44.315,44.315,0,0,1,.452,8.791,41.938,41.938,0,0,1-14,29.406,26.042,26.042,0,0,1,3.589,12.5,29.8,29.8,0,0,1-2.418,12.441,33.528,33.528,0,0,1-8.609,11.928,31.011,31.011,0,0,1-13.132,6.952,76.356,76.356,0,0,1-17.868,2c-17.073,0-34.154-4.759-50.673-9.362q-1.616-.451-3.22-.9c-10.284-3.388-20.84-7.347-31.375-11.768-9.965-4.182-20.227-8.908-30.5-14.048-18.721-9.367-37.8-20.216-58.334-33.165a87.652,87.652,0,0,1-23.573-21.588,91.4,91.4,0,0,1-14.511-28.5c-9.927-30.65-15.573-50.49-18.957-62.747-7.583-27.469-13.563-53.109-17.774-76.207-2.49-13.658-4.414-26.714-5.718-38.8a348.341,348.341,0,0,1-2.153-36.955,203.505,203.505,0,0,1,2.5-33.366,110.371,110.371,0,0,1,8.249-28.038,19.78,19.78,0,0,1,9.007-5.8,32.515,32.515,0,0,1,9.941-1.253c1.644,0,3.268.059,4.839.115h.005l.063,0c1.61.058,3.131.113,4.654.113,5.428,0,8.005-.847,9.644-1.585a13.913,13.913,0,0,0,7.026-7.492c-13.6-1.065-29.31-1.252-45.939-1.449h-.009c-12.1-.143-24.608-.291-37.126-.787-14.173-.561-26.278-1.5-37.007-2.871a200.68,200.68,0,0,1-34-7.007,119.664,119.664,0,0,1-14.965-5.7,85.909,85.909,0,0,1-13.128-7.5c1.014,14.587,2.164,29.408,3.276,43.741,1.777,22.91,3.615,46.6,4.946,69.912,1.493,26.15,2.177,49.053,2.091,70.017-.5,3.749.415,6.877,1.3,9.9,1.054,3.6,2.049,7,.877,11.358,7.627,13.047,14.254,26.632,21.511,41.761a44.288,44.288,0,0,1,7.524,9.128,28.791,28.791,0,0,1,2.674,5.554,16.491,16.491,0,0,1,.988,5.624,10.7,10.7,0,0,1-3.936,8.224c31.787,46.585,48.844,101.642,62.541,154.2,3.483.8,6.661,2.984,9.446,6.495a41.031,41.031,0,0,1,6.236,11.961,73.13,73.13,0,0,1,3.28,13.8,60.424,60.424,0,0,1,.577,12.014,38.469,38.469,0,0,1-2.79,10.742,32.221,32.221,0,0,1-5.243,8.368,36.134,36.134,0,0,1-7.242,6.324,49.931,49.931,0,0,1-8.788,4.609c-12.546,5.148-27.951,6.6-41.543,7.875-2.912.274-5.661.532-8.324.821-16,1.683-32.353,2.76-48.61,3.2C370.4,1494.528,364.773,1494.6,359.221,1494.6Zm-146.657-90.875h0a88.84,88.84,0,0,0,.594,14.268,65.063,65.063,0,0,0,2.718,12.193,52.66,52.66,0,0,0,4.648,10.271,48.933,48.933,0,0,0,6.384,8.5,55.314,55.314,0,0,0,13.528,10.409,80.514,80.514,0,0,0,16.745,6.813c11,3.182,24.025,4.96,39.824,5.433,20.25,1.927,40.772,2.9,60.995,2.9,8.233,0,16.566-.163,24.766-.483,2.056-.121,4.154-.242,6.183-.359l.528-.03c24.441-1.4,49.714-2.856,73.8-8.5,6.056-1.244,10.552-4.341,13-8.956a18.777,18.777,0,0,0,2.074-9.164,28.1,28.1,0,0,0-2.255-10.339,8.263,8.263,0,0,1-3.322.731,6.339,6.339,0,0,1-3.669-1.122,18.535,18.535,0,0,1-5.3-5.4,256.73,256.73,0,0,1-53.292,16.893,284.31,284.31,0,0,1-56.383,5.6,289.761,289.761,0,0,1-66.974-7.81,264.577,264.577,0,0,1-62.372-23.249c-3.574-.175-6.253-1.949-8.189-5.422-1.683-3.02-2.568-6.889-3.348-10.3C213.014,1405.592,212.8,1404.638,212.564,1403.729Zm22.49,8.768h0a9.832,9.832,0,0,1-2.79,7.05c9.417,3.056,18.9,5.762,28.2,8.041s18.642,4.194,27.832,5.7c9.169,1.5,18.447,2.648,27.578,3.4,9.1.746,18.328,1.125,27.434,1.125h.007c9.548,0,19.266-.416,28.884-1.238,9.552-.816,19.3-2.056,28.982-3.688,9.6-1.617,19.421-3.669,29.2-6.1,9.68-2.4,19.623-5.254,29.553-8.471-3.347-16.813-8-34.926-14.223-55.37-5.552-18.238-11.807-36.587-17.856-54.331l0-.007c-6.235-18.292-12.683-37.207-18.358-55.991-2.7-1.511-4.261-4.187-5.773-6.774a27.486,27.486,0,0,0-3.237-4.747,8.348,8.348,0,0,1-4.727-2.1,10.743,10.743,0,0,1-3.162-5.1c-7.556-4.57-17.3-8.439-28.182-11.188a140.209,140.209,0,0,0-33.81-4.283,99.066,99.066,0,0,0-25.03,2.961,55.441,55.441,0,0,0-20.409,9.638c1.752,10.115-2.232,19.468-6.084,28.513l-.2.479c3.382-.807,13.54-2.4,25.7-3.751a390.165,390.165,0,0,1,40.99-2.6,120.267,120.267,0,0,1,22.285,1.672c6.5,1.279,10.595,3.3,12.164,6.015,1.175,2.029.952,4.483-.662,7.292a14.948,14.948,0,0,1-5.281,2.753,20.342,20.342,0,0,1-5.777.755,61.578,61.578,0,0,1-10.627-1.282c-2.443-.438-4.75-.851-7.014-1.065-9.817-.816-19.937-1.23-30.079-1.23a408.644,408.644,0,0,0-45.9,2.659c-.914,2.564-1.606,5.3-2.275,7.943a61.06,61.06,0,0,1-3.506,10.948,268.805,268.805,0,0,1,39.793-9.694,357.672,357.672,0,0,1,40.758-4.285c1.584-.084,3.287-.21,4.79-.321h.007c3.1-.229,6.3-.465,9.433-.465a35.418,35.418,0,0,1,10.73,1.386,20.143,20.143,0,0,1,9.14,5.75,9.08,9.08,0,0,1,1.831,4.306,6.627,6.627,0,0,1-.714,3.79c-1.165,2.3-3.716,4.408-7.183,5.948a25.069,25.069,0,0,1-9.768,2.192,14.775,14.775,0,0,1-1.706-.094c-8.7-.261-17.932-.393-27.433-.393-27.593,0-55.173,1.088-81.058,2.2-5.777,9.5-11.751,19.58-16.3,28.909a107.619,107.619,0,0,0-8.87,24.373,94.032,94.032,0,0,0-1.856,25.78c.483,9.095,1.988,19.621,4.737,33.128l-.06-.049a.985.985,0,0,1-.108-.092Zm314.679-395.141c-3.192,1.707-7.107,2.564-10.893,3.392a55.3,55.3,0,0,0-9.237,2.583,15.982,15.982,0,0,0-7.263,5.516,283.7,283.7,0,0,0-3.035,29.21c-.5,9.444-.556,19.286-.178,29.251a427.741,427.741,0,0,0,6.527,58.416c6.849,38.835,18,77.564,28.789,115.017,2.669,9.268,5.429,18.849,8.051,28.2,5.468,18.437,16.92,33.456,32.249,42.291,18.926,11.559,36.117,21.191,52.554,29.448,9.247,4.645,18.434,8.935,27.3,12.751,9.445,4.063,18.88,7.737,28.043,10.922,2.293.641,5.008,1.459,7.882,2.326l.048.014c6.567,1.98,14.734,4.442,23.049,6.369,9.735,2.256,17.774,3.353,24.578,3.353a41.849,41.849,0,0,0,12.057-1.553,20.489,20.489,0,0,0,9.086-5.341,11.051,11.051,0,0,0,2.14-6.794,7.633,7.633,0,0,0-3.08-5.647c-.264-.1-.538-.2-.818-.311-3.829-1.445-9.069-3.423-9.622-8.278l.139-.05a7.116,7.116,0,0,1-.17-6.438,12.406,12.406,0,0,1,3.567-4.547,13.472,13.472,0,0,1,5.015-2.636,12.392,12.392,0,0,0,8.859-3.744c1.966-2.018,3.6-4.933,5.142-9.177a34.853,34.853,0,0,0,.153-8.187A31,31,0,0,0,789,1326.4a37.844,37.844,0,0,0-7.769-12.5c-6.793-7.547-16.47-13.829-25.828-19.9l0,0c-5.52-3.583-11.227-7.289-16.221-11.185a58.123,58.123,0,0,1-12.57-12.741,7.313,7.313,0,0,1-2.814,4.6,8.074,8.074,0,0,1-4.754,1.479,8.729,8.729,0,0,1-6.188-2.475,7.439,7.439,0,0,1-2.135-5.431c-.439-22.087,3.269-44.564,6.856-66.3l.007-.04c.977-5.922,1.987-12.045,2.889-18.027-.314-.013-.649-.021-.995-.021a52.911,52.911,0,0,0-7.229.68,52.931,52.931,0,0,1-7.229.681,18.685,18.685,0,0,1-4.129-.421c-.36-2.259,2.155-4.831,7.474-7.645a113.114,113.114,0,0,1,12.973-5.508l.017-.006c.667-.248,1.244-.461,1.708-.64,1.049-4.893,2.153-9.718,3.28-14.341-3.331.2-6.365.3-9.017.3a46.153,46.153,0,0,1-10.893-.966c-2.231-.585-3.408-1.42-3.5-2.48-.15-1.738,2.734-4.023,7.913-6.268a89.961,89.961,0,0,1,19.367-5.5c.807-2.746,1.579-5.791,2.43-9.581a106.472,106.472,0,0,0,2.741-20.07c-15.147,6.942-29.514,10.461-42.7,10.462a68.8,68.8,0,0,1-14.452-1.5,51.516,51.516,0,0,1-11.766-4.3,53.625,53.625,0,0,1-10.168-6.779,58.094,58.094,0,0,1-8.412-8.8,62.733,62.733,0,0,1-6.5-10.355,65.264,65.264,0,0,1-6.784-25.762,60.393,60.393,0,0,1,.805-13.35,55.666,55.666,0,0,1,3.875-12.868,24.243,24.243,0,0,1-.777-8.536,35.985,35.985,0,0,1,1.822-8.505,83.675,83.675,0,0,1,7.675-15.719c-22.953-.08-45.678-.7-68.878-1.389a64.776,64.776,0,0,0-9.37,7.959,44.63,44.63,0,0,0-6.316,8.265,37.961,37.961,0,0,0-5.161,17.447c-.683,12.036,3.4,24.9,7.727,38.527l0,.012c1.307,4.116,2.658,8.372,3.895,12.668,9.925,34.665,18.321,70.379,26.44,104.916v.006c3.089,13.14,6.283,26.727,9.52,40.077a135.243,135.243,0,0,0,46.21,81.886,133.56,133.56,0,0,0,26.949,17.665,164.143,164.143,0,0,0,27.491,11.41,167.411,167.411,0,0,0,29.089,6.31c1.315.133,2.678.221,4,.305h.006a44.173,44.173,0,0,1,9.4,1.275,14.226,14.226,0,0,1,7.742,5.2,8.747,8.747,0,0,1,2.288,5.693,7.5,7.5,0,0,1-2.288,5.648,14.373,14.373,0,0,1-6.657,4.094,30.488,30.488,0,0,1-8.969,1.172c-9.335,0-20.332-2.787-29.167-5.027-3.008-.762-5.849-1.482-8.174-1.97a212.218,212.218,0,0,1-33.879-13.361,159.539,159.539,0,0,1-26.946-17.046,146.524,146.524,0,0,1-37.268-44.031,205.584,205.584,0,0,1-12.407-26.428c-3.418-8.743-6.574-18.228-9.647-29-5.742-20.123-10.327-41.717-15.181-64.579l0-.01-.116-.547c-2.472-13.347-5.961-27.158-9.335-40.514l0-.007c-4.778-18.915-9.719-38.474-12.109-57.777a177.833,177.833,0,0,1-1.4-28.9,136.839,136.839,0,0,1,1.3-14.376,122.327,122.327,0,0,1,2.953-14.3Zm-267.82,248.5c-1.327.176-2.679.343-3.985.505h-.007l-.111.014-1.536.191q-.064.177-.132.356l-.009.025c-.076.206-.155.419-.23.629C277.829,1267,279.8,1266.438,281.913,1265.857Zm83.351-81.439c-16.17,1.646-32.672,2.015-48.632,2.371-17.116.382-34.816.777-52.159,2.749,5.833,8.056,10.659,17.5,15.19,29.73A59.071,59.071,0,0,1,290.8,1211a64.367,64.367,0,0,1,12.386-5.428,78.844,78.844,0,0,1,13.3-2.973,102.611,102.611,0,0,1,13.892-.905,155.47,155.47,0,0,1,27.818,2.771c8.055,1.48,16.65,3.552,26.276,6.335-2.288-6.682-4.347-13.314-6.12-19.71a10.877,10.877,0,0,1-1.725.136,13.116,13.116,0,0,1-6.543-1.848,12.7,12.7,0,0,1-4.822-4.958h0Zm-238.781-16.5a2.974,2.974,0,0,1,.024.3c0,.043,0,.087.007.133.724.048,1.466.115,2.121.174l.178.016c-.49-.119-.978-.253-1.45-.382l-.037-.01C127.05,1168.07,126.764,1167.991,126.483,1167.918Zm546.7-161.673c-1.343,0-3.524,2.313-6.483,6.875-2.394,3.69-4.663,7.877-5.754,9.89-.222.41-.388.715-.5.918-2.8,5.947-4.092,13.39-5.08,19.9a62.872,62.872,0,0,0-1.129,12.457,56.542,56.542,0,0,0,1.334,11.689,49.78,49.78,0,0,0,3.6,10.519,43.124,43.124,0,0,0,5.669,8.946,36.142,36.142,0,0,0,28.465,13.386,50.048,50.048,0,0,0,18.94-4.016c-.517-.044-1.079-.066-1.717-.066-.968,0-1.95.051-2.9.1h-.007c-.953.049-1.938.1-2.893.1a10.8,10.8,0,0,1-6.883-1.895.1.1,0,0,0,.031-.03l.018-.021a2.558,2.558,0,0,1-.214-2.457c1.349-2.765,8.4-3.863,14.07-4.745a34.23,34.23,0,0,0,6.345-1.307c4.053-.847,8.177-1.692,12.166-2.51l.168-.034.019,0c11.1-2.275,22.578-4.627,33.8-7.272,2.266-.535,4.589-1.173,6.835-1.789,5.2-1.429,10.585-2.907,15.915-3.311-2.269-23.366-3.034-40.3-3.592-52.668v-.006h0c-.987-21.86-1.285-28.458-8.173-28.458-2.98,0-7.279,1.26-13.229,3a277.164,277.164,0,0,1-31.329,7.6c-7.577,1.354-15.579,2.431-23.784,3.2-9.566.9-19.751,1.413-30.271,1.53a2.182,2.182,0,0,1-.368,1.866,1.991,1.991,0,0,1-1.494.684c-.31,0-.535-.087-.572-.223-.032-.117.079-.258.313-.4C674.235,1006.734,673.794,1006.245,673.182,1006.245Zm238.486,16.087a.251.251,0,0,0-.192.078.457.457,0,0,0-.09.341c.014.2.112.418.237.418.062,0,.153-.054.242-.311.029-.083.067-.166.1-.233l0-.008c.024-.052.048-.106.069-.159A.773.773,0,0,0,911.667,1022.332ZM889.38,847.4h0a406.512,406.512,0,0,0,.862,88.918,337.938,337.938,0,0,0,21.85,86,414.331,414.331,0,0,0,2.209-47.092c-.043-16.042-.679-32.6-1.294-48.607v-.005c-.861-22.411-1.752-45.586-1.015-67.566a5.93,5.93,0,0,1,1.63-4.344,6.374,6.374,0,0,1,4.527-1.773,6.791,6.791,0,0,1,4.375,1.533,6.144,6.144,0,0,1,2.15,4.583c.085,2.664.167,5.367.246,7.982.73,24.152,1.485,49.123,5.588,73.137a199.573,199.573,0,0,0,9.083,35.136,153.9,153.9,0,0,0,7.205,16.673,138.71,138.71,0,0,0,9.4,15.872c.777-17.874.346-36.361-.071-54.24v-.016c-.494-21.179-1-43.079.467-64.336a269,269,0,0,1,3.935-31.606,193.752,193.752,0,0,1,8.379-30.842,4.669,4.669,0,0,1,1.775-2.155,4.475,4.475,0,0,1,2.43-.721A3.82,3.82,0,0,1,977,827.909c.2,10.231,2.469,31.862,6.274,51.8a212.657,212.657,0,0,0,7.142,28.389c3.029,8.83,6.25,14.663,9.574,17.339a70.669,70.669,0,0,0,3.16-18.651c.317-6.469.045-12.972-.261-19.079-.914-21.38-2.876-43.541-6-67.748-2.591-20.077-5.955-41.453-10.588-67.271a28.686,28.686,0,0,1-.291-6.9,24.521,24.521,0,0,1,1.47-6.77,15.667,15.667,0,0,1,9.169-9.574,61.45,61.45,0,0,1,11.666-8.455c4.168-2.417,8.408-4.464,12.395-6.354a185.033,185.033,0,0,1,27.177-10.545c9.436-2.931,19.315-5.465,28.87-7.915,9.008-2.31,18.322-4.7,27.257-7.418a199.394,199.394,0,0,0,25.888-9.631,112.108,112.108,0,0,0,23.126-14.049,91.76,91.76,0,0,0,10.092-9.371,90.378,90.378,0,0,0,8.879-11.3l.626-.944.129-.195c4.281-6.454,8.324-12.549,10.1-20.171-3.052-11.406-7.069-22.79-10.953-33.8l0-.011c-1.859-5.269-3.782-10.717-5.573-16.1-6.14-18.231-11.727-34.122-17.08-48.58-6.152-16.8-12.576-32.935-19.092-47.962-7.045-16.244-14.495-31.879-22.143-46.469-8.152-15.553-16.837-30.51-25.815-44.456a498.852,498.852,0,0,0-30.109-41.923,176.9,176.9,0,0,0-20,2.562,163.69,163.69,0,0,0-18.43,4.583,170.416,170.416,0,0,0-33.235,14.49,248.219,248.219,0,0,0-30.205,20.357c-8.5,6.589-17.549,14.222-29.339,24.747-3.2,2.768-6.146,5.211-9,7.47,11.772,20.646,24.38,41.261,36.573,61.2l.019.031c5.676,9.28,11.545,18.876,17.266,28.371.584.977,1.183,1.972,1.761,2.935l.1.165c5.694,9.467,11.581,19.255,15,29.941,3.614,11.44,2.059,26.787-4.753,46.919-5.9,17.45-14.831,35.807-22.706,52-4.822,9.917-9.376,19.283-12.561,27.08-6.274,11.076-12.531,21.856-18.583,32.282l0,.006c-14.175,24.424-27.564,47.493-38.861,70.292-6.043,12.2-11.016,23.356-15.2,34.118a280.088,280.088,0,0,0-11.057,34.475,215.718,215.718,0,0,0-5.681,73.155c.61,6.5,1.528,13.139,2.73,19.736,1.227,6.734,2.788,13.634,4.639,20.51a316.764,316.764,0,0,0,15.506,43.736c1.15-3.1.955-9.055.748-15.355V979.6c-.183-5.585-.373-11.359.31-15.908a14.942,14.942,0,0,1,1.789-5.653,4.973,4.973,0,0,1,3.763-2.519c-.939-9.238-1.59-18.39-1.934-27.2-.386-9.857-.391-19.375-.016-28.287C881.595,879.313,884.507,861.6,889.38,847.4Zm-221.126,158.58a7.117,7.117,0,0,0-2.512,1.837l-.009.009c-.354.345-.721.7-1.092,1,.41-.321.758-.6,1.126-.9.677-.549,1.376-1.118,2.486-1.944Zm-293.571-33.34h0c.1,1.309.2,2.62.3,3.919,1.774.361,3.54.813,5.249,1.25l.431.11a38.992,38.992,0,0,1-5.979-5.279Zm592.03-104.8h0c-2.612,18.852-2.774,38.3-2.931,57.1v.119c-.025,3-.051,6.112-.087,9.161.321-7.111.63-14.34.929-21.332l0-.057c.63-14.749,1.281-30,2.088-44.992Zm-476.526-82.77h0a6.877,6.877,0,0,1,5.171,2.309,6.743,6.743,0,0,1,1.426,5.631,244.443,244.443,0,0,1-6.7,27.331,184.2,184.2,0,0,1-10.3,26.168q-.416,2.438-.834,4.876l-.217,1.266-.012.072c-1.8,10.521-3.662,21.4-5.388,32.116a3.422,3.422,0,0,1,1.508-.346,3.875,3.875,0,0,1,.922.114,129.3,129.3,0,0,0,9.973-11.312,143.233,143.233,0,0,0,8.545-12.193,181.339,181.339,0,0,0,13.547-26.443c7.754-18.474,13.181-38.293,18.074-57.01a51.381,51.381,0,0,1-1.883-15.115c.048-5.073.613-10.265,1.159-15.285a129.34,129.34,0,0,0,1.124-19.03,78.1,78.1,0,0,0,.237-15.762,92.412,92.412,0,0,0-2.661-15.275c-2.336-9.017-5.984-18.334-11.479-29.321a92.705,92.705,0,0,0-2.986-16.06,90.46,90.46,0,0,0-5.435-14.447A108.192,108.192,0,0,0,487.2,612.4a193.817,193.817,0,0,0-22.265-21.185c-8.019-6.635-16.589-13.024-24.877-19.2-10.106-7.535-20.552-15.324-29.847-23.461A276.539,276.539,0,0,1,386.8,521.822c-7.34-9.406-14.445-19.342-21.317-28.951l-.01-.014,0,0c-6.51-9.1-13.241-18.517-20.137-27.427a286.561,286.561,0,0,0-21.817-25.379A165.119,165.119,0,0,0,298.293,418.7a134.22,134.22,0,0,0-14.429-8.545,128.241,128.241,0,0,0-15.93-6.8c-.827.053-1.674.08-2.515.08A54.72,54.72,0,0,1,247.364,400a.353.353,0,0,1-.236-.365.267.267,0,0,1,.236-.265c3.756-.613,7.575-1.433,11.268-2.225l.013,0c2.943-.632,5.987-1.285,8.989-1.832a7.2,7.2,0,0,1,3.206-4.177,9.9,9.9,0,0,1,5.143-1.311,14.633,14.633,0,0,1,6.251,1.471c7.083-3.1,14.289-6.617,21.415-10.439,6.778-3.636,13.7-7.669,20.582-11.989a459.443,459.443,0,0,0,39.031-27.636c25.194-19.722,49.031-41.723,72.083-63l1.647-1.52a300.216,300.216,0,0,0-77.347-51.476,337.9,337.9,0,0,0-43.59-16.707,355.076,355.076,0,0,0-45.442-10.687c-18.575,21.033-36.556,43.184-53.945,64.606-14.069,17.331-28.616,35.252-43.392,52.474-16.566,19.309-31.669,35.67-46.172,50.02C108.226,382,95.689,397.827,88.778,413.317a74.777,74.777,0,0,0-4.691,13.919,61.317,61.317,0,0,0-1.533,14.5,58.854,58.854,0,0,0,2.225,15.009,68.763,68.763,0,0,0,6.584,15.441,7.042,7.042,0,0,1,4.276,5.646,8.21,8.21,0,0,1-.359,3.935,7.4,7.4,0,0,1-2.338,3.33,12.243,12.243,0,0,0,1.7-.573,16.313,16.313,0,0,1,4.095-1.185c.3,0,.5.073.584.215.1.171.042.447-.171.823a113.926,113.926,0,0,0-35.331,24.04,111.51,111.51,0,0,1,15.99-9.821,107.98,107.98,0,0,1,16.663-6.688,112.619,112.619,0,0,1,17.17-3.819,124.687,124.687,0,0,1,17.511-1.215c22.188,0,46.265,5.547,71.562,16.487a287.413,287.413,0,0,1,33.4,17.238,337.307,337.307,0,0,1,29.952,20.238c13.351,9.756,26.619,20.291,39.436,31.312,12.432,10.691,24.812,22.16,36.795,34.088,8.1,1.451,16.551,5.693,23.346,9.1l.973.488c23.611,11.343,38.22,24.894,45.978,42.645,3.6,8.234,5.811,17.544,6.764,28.462.849,9.724.731,20.706-.371,34.562a230.657,230.657,0,0,0-12.956,30.378c-3.693,10.445-6.963,21.288-10.127,31.773-2.741,9.087-5.576,18.484-8.665,27.549-2.661,5.9-3.543,9.831-2.55,11.368a1.594,1.594,0,0,0,1.436.716c1.807,0,4.815-1.905,7.851-4.972,3.145-3.177,5.523-6.793,6.363-9.672,5.473-6.812,8.792-15.346,12-23.6l0-.005c1.078-2.773,2.194-5.639,3.356-8.336a8.123,8.123,0,0,1,2.265-3.145,5.368,5.368,0,0,1,3.472-1.285,5.96,5.96,0,0,1,1.643.24,6.731,6.731,0,0,1,3.968,3.485,4.719,4.719,0,0,1,.219,3.9c-1.769,4.572-3.566,9.177-5.3,13.632-9.546,24.469-19.416,49.772-27.094,75.169a87.949,87.949,0,0,0,17.194-13.553,123.618,123.618,0,0,0,13.905-16.845c8.4-12.047,15.309-25.5,21.991-38.517,1.652-3.216,3.36-6.543,5.049-9.765a5.879,5.879,0,0,1,5.25-3.371,7.366,7.366,0,0,1,6.055,3.488,6.659,6.659,0,0,1,.276,6.652c-2.856,5.836-6.659,13.51-10.759,21.111a315.8,315.8,0,0,0-12.864,32.078c-3.459,10.094-6.706,20.931-9.927,33.132,14.429-8.606,25.913-21.914,35.106-40.685a203.221,203.221,0,0,0,10.176-25.473c2.971-8.951,5.562-18.192,7.645-25.617l0-.005a6.718,6.718,0,0,1,2.076-4.733A6.165,6.165,0,0,1,490.187,785.068ZM457.643,564.3c8.647,6.323,17.588,12.862,25.88,19.948a129.825,129.825,0,0,1,28.49,33.129,125.135,125.135,0,0,1,15.629,40.792,109.908,109.908,0,0,1,16.672,64.99c-.025.685-.033,1.494-.043,2.351v.031a49.576,49.576,0,0,1-.84,10.266,12.684,12.684,0,0,1-1.791,4.4,5.866,5.866,0,0,1-3.425,2.451c1.63,15.486,2.942,28.009,4.13,39.41,7.813,4.728,14.77,8.693,21.269,12.119a241.858,241.858,0,0,0,22.719,10.628,158.8,158.8,0,0,0,23.674,7.545,108.991,108.991,0,0,0,24.131,2.87,86.675,86.675,0,0,0,17.667-1.783,81.553,81.553,0,0,0,17.452-5.766,180.73,180.73,0,0,0,38.6-29.437,221.884,221.884,0,0,0,30.481-38.183,270.5,270.5,0,0,0,22.445-43.843A301.259,301.259,0,0,0,775.274,649.8c-1.559-1.564-1.986-3.69-2.4-5.747a14.42,14.42,0,0,0-1.36-4.353.133.133,0,0,1,.041-.03,183.533,183.533,0,0,1,1-26.809A195.98,195.98,0,0,1,777.2,587.14a227.351,227.351,0,0,1,7.76-24.773c2.919-7.776,6.4-15.843,10.348-23.974a445.712,445.712,0,0,1,26.354-46.14c9.692-15.078,20.211-30.139,30.384-44.7,9.383-13.433,19.085-27.324,28.035-41.09a465.849,465.849,0,0,0,24.541-41.791c8.035-13.252,16.581-26.474,24.845-39.261,5.632-8.715,11.457-17.726,17.075-26.679a.819.819,0,0,1,.706-.394.912.912,0,0,1,.719.349.771.771,0,0,1,.113.694,396.062,396.062,0,0,1-18.163,53.869c-7.37,17.986-15.724,35.824-23.1,51.562.432-.881,3.85-1.6,5.851-1.6.911,0,1.469.141,1.572.4.057.143-.024.321-.241.529a12.446,12.446,0,0,0-2.217-.223c-1.824,0-3.069.559-3.7,1.662-.981,1.714-.4,4.725,1.555,8.052a243.812,243.812,0,0,1,28.881-32.618,227.439,227.439,0,0,1,34.657-26.96,196.117,196.117,0,0,1,39.24-19.131,167.424,167.424,0,0,1,42.633-9.131c-6.032-19.572-13.581-40.461-21.831-60.407a635.779,635.779,0,0,0-30.89-64.587c-12.474-22.538-25.562-42.332-38.9-58.831A250.13,250.13,0,0,0,941.3,117.813a169.293,169.293,0,0,0-23.74-18.985,416.493,416.493,0,0,1-12.069,48.416,323.694,323.694,0,0,1-16.129,41.213c-11.563,24.27-25.693,45.042-42,61.739-15.315,15.682-32.449,27.691-50.927,35.694a140.376,140.376,0,0,1-27.288,8.656,137.061,137.061,0,0,1-27.692,2.837h-.017a140,140,0,0,1-33.482-4.1,149.013,149.013,0,0,1-32.082-12.024,161.953,161.953,0,0,1-29.554-19.53,177.73,177.73,0,0,1-25.915-26.614,199.331,199.331,0,0,1-25.53-42.467,231.96,231.96,0,0,1-15.993-52.011,279.714,279.714,0,0,1-4.3-60.739,330.422,330.422,0,0,1,2.905-33.388c1.59-11.556,3.822-23.421,6.635-35.264a1.391,1.391,0,0,1-.23-1.229,1.1,1.1,0,0,1,.72-.731c-44.124.009-88.923,11.28-133.154,33.5A411.615,411.615,0,0,0,392.381,79.3a504.076,504.076,0,0,0-52.687,44.937c-20.376,19.666-41.622,42.19-64.951,68.86,2.007-.058,4.03-.086,6.012-.086a221.131,221.131,0,0,1,46.564,5.057,247.906,247.906,0,0,1,44.626,14.263,274.565,274.565,0,0,1,41.488,22.107,289.8,289.8,0,0,1,37.151,28.589,45.588,45.588,0,0,0,8.261-10.871,65.94,65.94,0,0,0,5.27-12.639,8.148,8.148,0,0,1,3.01-4.139,7.73,7.73,0,0,1,4.479-1.413h0a8.056,8.056,0,0,1,6.733,3.695,14.125,14.125,0,0,1,2.845,5.8,17.7,17.7,0,0,1,.129,6.737c-.742,4.672-3.106,10.1-7.025,16.127a135.3,135.3,0,0,1-14.864,18.37c-10.781,11.45-25.535,24.562-43.851,38.974-22.091,17.382-49.217,36.543-78.446,55.412a80.1,80.1,0,0,1,2.494,12.145,81.356,81.356,0,0,1,.593,12.023,97.541,97.541,0,0,1-3.708,23.832,294.3,294.3,0,0,1,21.6,25.485c6.766,8.853,13.31,18.12,19.638,27.083,8.516,12.06,17.321,24.531,26.76,36.119,5.081,6.238,9.937,11.731,14.844,16.795a188.465,188.465,0,0,0,16.609,15.289c7.034,5.734,14.481,11.181,21.684,16.448l0,0ZM354.926,619.1h0c15.645,16.353,31.162,34.118,46.119,52.8.2.263.381.511.55.76a70.072,70.072,0,0,0-6.133-18.158,63.974,63.974,0,0,0-10.149-14.548c-7.438-8.036-17.378-14.858-30.387-20.855Zm545.409-204.85c-11.143,20.508-24.977,40.754-38.356,60.333l-.008.012c-7.936,11.614-16.142,23.623-23.759,35.638A400.188,400.188,0,0,0,817.232,547a227.984,227.984,0,0,0-15.262,38.816,179.679,179.679,0,0,0-4.572,20.461,165.7,165.7,0,0,0-2.045,21.316c14.969-5.952,31.583-11.756,50.788-17.745,17.122-5.339,34.678-10.328,51.655-15.153l.014,0c14.73-4.186,29.962-8.514,44.864-13.059,1.156-.3,2.341-.618,3.595-.96l.049-.013c5.218-1.422,11.133-3.035,16.584-3.035.32,0,.64.006.951.017,6.055-10.5,7.645-21.713,4.861-34.283a86.13,86.13,0,0,0-5.724-16.618c-2.6-5.783-5.64-11.4-8.276-16.137-7.458-16.328-17.183-31.832-26.589-46.826C918.195,447.952,907.928,431.585,900.335,414.248Zm-570.21-31.09c-5.7,3.2-10.809,5.853-15.619,8.115a149.987,149.987,0,0,1-16.292,6.605,122.5,122.5,0,0,1,13.777,8.2,145.59,145.59,0,0,1,12.673,9.793c3.777-9.617,5.615-20.622,5.461-32.71ZM590.254,14.678h0c-1.376,12.136-2.331,24.025-2.836,35.336-.544,12.187-.587,24.135-.128,35.511a345.223,345.223,0,0,0,3.2,35.3,291.779,291.779,0,0,0,7.146,34.7,173.086,173.086,0,0,0,8.207,24,185.54,185.54,0,0,0,11.73,22.97,187.587,187.587,0,0,0,14.892,21.273,179.055,179.055,0,0,0,17.691,18.906,163.126,163.126,0,0,0,20.128,15.869,144.6,144.6,0,0,0,22.2,12.164,122.452,122.452,0,0,0,49.18,10.536h.007a118.113,118.113,0,0,0,20.842-1.868,130.58,130.58,0,0,0,27.558-9.035A134.319,134.319,0,0,0,814.1,256.108a154.046,154.046,0,0,0,20.7-18.562,188.127,188.127,0,0,0,17.579-22.014,259.021,259.021,0,0,0,26.612-50.888,367.028,367.028,0,0,0,16.586-54.207,225.9,225.9,0,0,0-35-35.437,236.755,236.755,0,0,0-88.242-44.87,227.62,227.62,0,0,0-49.239-7.462c-2.594-.106-5.346-.16-8.18-.16-11.036,0-22.594.811-33.772,1.6l-.27.019c-11.31.794-23,1.614-34.518,1.615a163.533,163.533,0,0,1-28.8-2.263,99.815,99.815,0,0,1-27.3-8.8Z" transform="translate(-0.001 0)"/>
    </g>
    <g id="Group_1" data-name="Group 1">
      <g id="head_Short_5" data-name="head/Short 5" transform="translate(-13050.5 6748.5)">
        <path id="_Skin-2" data-name="âœ‹ Skin" d="M185.626,0C242.407,0,301.136,44.012,321.95,72.1c17.5,23.613,26.921,130.388,26.921,202.548,0,15.092,8.328,43.541,5.9,57.977-8.906,52.9-47.709,97.264-124.507,97.264S98.4,399.445,41.317,317.713c-27.7,0-41.12-21.24-41.315-54.759S26.737,217.24,26.737,217.24s-9.6-132.279,14.58-166.718S128.845,0,185.626,0Z" transform="translate(56.415 75.26)" fill="#d08b5b"/>
        <path id="_Ink-2" data-name="ðŸ– Ink" d="M240.7,460.988a134.978,134.978,0,0,1-24.924-2.26,109.827,109.827,0,0,1-23.624-7.177,89.12,89.12,0,0,1-20.9-12.692,81,81,0,0,1-16.743-18.8.491.491,0,0,1-.04-.516.622.622,0,0,1,.539-.3.592.592,0,0,1,.381.136,93.319,93.319,0,0,0,13.143,8.934,101.44,101.44,0,0,0,14.06,6.5,142.878,142.878,0,0,0,30.5,7.382,150.258,150.258,0,0,0,20.742,1.427,155.98,155.98,0,0,0,23.216-1.744,151.083,151.083,0,0,0,22.766-5.251,137.75,137.75,0,0,0,21.484-8.785A121.207,121.207,0,0,0,320.675,415.5a80.61,80.61,0,0,0,18.056-19.967,85.806,85.806,0,0,0,6.392-11.932,84.716,84.716,0,0,0,4.413-12.752,80.693,80.693,0,0,0,2.286-13.557,77.081,77.081,0,0,0-.107-13.752c-.615-6.2-2.7-11.917-4.713-17.443-1.007-2.762-2.047-5.617-2.907-8.526a7.836,7.836,0,0,1,1.86-7.671c.246-3.442.66-6.954,1.061-10.35.428-3.631.871-7.382,1.108-11.049.509-8.057.822-16.206.931-24.222.2-16.032-.438-32.935-1.9-50.239-1.552-18.383-4.7-36.8-7.745-54.61-2.017-11.8-4.1-24-5.7-36.071a5.039,5.039,0,0,1-3.39,1.354,5.315,5.315,0,0,1-2.469-.638l-.231-.127-1.22-.7a1.864,1.864,0,0,0-.221.019c-1.75.17-3.557.256-5.371.256a66.107,66.107,0,0,1-19.639-3.1A73.589,73.589,0,0,1,278.086,108.5a104.449,104.449,0,0,0-1.879,20.269,5.167,5.167,0,0,1-1.663,3.86,5.572,5.572,0,0,1-3.775,1.432,5.9,5.9,0,0,1-2.662-.641,339.2,339.2,0,0,1-45.42-27.79l-1.052,5.387-.011.056c-1.3,6.683-2.653,13.593-3.988,20.4a4.342,4.342,0,0,1-1.842,2.763,5.633,5.633,0,0,1-3.193.979,5.069,5.069,0,0,1-2.555-.661,96.072,96.072,0,0,1-27.67-24.241c-1.808,3.457-3.257,6.213-4.559,8.674l-2.3,4.325c-2.319,4.343-5.354,8.964-10.28,10.31a9.147,9.147,0,0,1-2.413.333,8.635,8.635,0,0,1-5.507-2.027,11.76,11.76,0,0,1-3.5-5.036c-.521-1.426-1.025-2.95-1.5-4.53a264.463,264.463,0,0,1-15.26,29.77c-7.81,13.024-17.252,25.02-26.383,36.621q-1.383,1.757-2.767,3.518a4.041,4.041,0,0,1-3.222,1.686c-2.606,0-5.361-2.607-5.669-5.365-.237-2.149-.446-4.38-.641-6.821-6.948,14.021-13,25.35-19.031,35.654l.975,3.817c1.973,7.931,3.741,16.036,5.45,23.874.721,3.306,1.467,6.725,2.221,10.1a9.167,9.167,0,0,1-1.369,6.879,5.891,5.891,0,0,1-4.031,2.632,42.868,42.868,0,0,0-4.546,1.006,27.473,27.473,0,0,1-6.8,1.171,11.571,11.571,0,0,1-3.818-.619c-4.457-1.53-6.138-4.912-7.917-8.492-.5-1.007-1.017-2.046-1.6-3.066a18.8,18.8,0,0,0-1.834-2.6l-.171.222a.539.539,0,0,1-.443.217.832.832,0,0,1-.658-.358.565.565,0,0,1-.069-.538l.293-.727a57.133,57.133,0,0,0-5.276-4.736c-.777-.642-1.581-1.3-2.351-1.971a27.959,27.959,0,0,0-4.629-.376,25.564,25.564,0,0,0-12.389,2.93,24.593,24.593,0,0,0-6.169,5.206,29.626,29.626,0,0,0-4.325,6.79,38.326,38.326,0,0,0-3.444,15.754,72.992,72.992,0,0,0,10.238,37,32.086,32.086,0,0,0,5.111,6.454,21.52,21.52,0,0,0,6.849,4.5,32.528,32.528,0,0,0,8.133,1.75,34.637,34.637,0,0,1,7.807,1.61,6.719,6.719,0,0,1,4.021,3.957,5.355,5.355,0,0,1-.521,4.653c-.094.162-.2.317-.3.466l0,.006c-.049.072-.1.145-.147.219l1.555,2.065c.982,1.312,2.132,2.879,3.226,4.555,1.658,1.907,3.4,3.8,5.081,5.634l0,.005c1.015,1.106,2.065,2.249,3.085,3.382,3.416,3.783,6.818,7.7,10.109,11.492l.011.012c1.53,1.762,3.112,3.584,4.679,5.374,4.057,4.633,8.71,9.466,14.641,15.21,2.024,1.966,4.3,3.83,6.5,5.634a75.092,75.092,0,0,1,8.67,7.888,14.162,14.162,0,0,1,2.893,5.149,10.659,10.659,0,0,1,.313,5.591,7.522,7.522,0,0,1-4.807,5.349,10.271,10.271,0,0,1-3.817.747c-5.684,0-10.819-4.816-14.946-8.686-.384-.36-.781-.732-1.166-1.089l-.22-.2a144.711,144.711,0,0,1-25.185-30.083,22.147,22.147,0,0,1-12.36,3.716,19.617,19.617,0,0,1-11.144-3.271,20.5,20.5,0,0,1-7.656-11.024,16.148,16.148,0,0,1-3.543.429l-.2,0c-.736.427-1.341.762-1.9,1.055a11.6,11.6,0,0,1-5.319,1.344,9.151,9.151,0,0,1-4.886-1.351,8.679,8.679,0,0,1-3.415-4.144,13.629,13.629,0,0,1-.522-7.962,46.493,46.493,0,0,1,2.49-7.824l.392-1.013a88.729,88.729,0,0,1,3.75-8.719,47.5,47.5,0,0,1-10.62-11.33A78.643,78.643,0,0,1,2.334,297.2,87.651,87.651,0,0,1,.176,282.943a72.411,72.411,0,0,1,.34-13.775A50.3,50.3,0,0,1,5.2,253.48a45.214,45.214,0,0,1,4.286-7.069,38.69,38.69,0,0,1,5.524-6.025l-.3-.78a117.831,117.831,0,0,1-5.719-17.779,183.6,183.6,0,0,1-3.05-21.93,209.935,209.935,0,0,1,.89-46.61,204.4,204.4,0,0,1,10.009-42.552A166.638,166.638,0,0,1,36.556,71.827,33.392,33.392,0,0,1,30.8,62.6a18.806,18.806,0,0,1-1.223-5.175,16.906,16.906,0,0,1,2.646-10.537,13.33,13.33,0,0,1,3.8-3.863A11.734,11.734,0,0,1,39,41.768a13.685,13.685,0,0,0,2.418-.94l.508-.28c.453-.264.418-.351.222-.834a8.826,8.826,0,0,1-.49-1.566c-.962-4.42-.861-8.206.3-11.254,1.353-3.552,4.129-5.983,8.25-7.226a14.8,14.8,0,0,1,4.273-.634A17.7,17.7,0,0,1,63.9,21.966a29.351,29.351,0,0,1,7.451,6.871A92.272,92.272,0,0,1,93,17.927c7.523-2.773,15.264-4.941,23.194-7.1a321.158,321.158,0,0,1,51.95-9.271A313.381,313.381,0,0,1,199.579,0a368.179,368.179,0,0,1,37.485,1.972c11.894,1.207,24.125,2.945,37.391,5.315a5.8,5.8,0,0,1,4.8,4.389c9.963.455,20.094,1.085,29.891,1.695,6.566.408,13.355.831,20.029,1.2a8.406,8.406,0,0,1,3.975,1.2,7.681,7.681,0,0,1,3.686,6.416,8.429,8.429,0,0,1-.961,4.05c-.567,1.1-1.152,2.165-1.7,3.149l.728-.24a27.208,27.208,0,0,1,8.268-1.49,14.756,14.756,0,0,1,7,1.641,13.837,13.837,0,0,1,6.469,7.232,17.06,17.06,0,0,1,.791,9.737,25.833,25.833,0,0,1-1.609,4.861c.5-.033.992-.049,1.463-.049a20.1,20.1,0,0,1,2.627.17,15.732,15.732,0,0,1,5.032,1.537,14.431,14.431,0,0,1,7.968,12.362c.263,5.226-1.138,10.752-4.163,16.423a55.876,55.876,0,0,1-10.936,14.045,14.054,14.054,0,0,1,1.189,8.531,13.671,13.671,0,0,1-3.729,7.3,21.86,21.86,0,0,1-6.787,4.574,54.851,54.851,0,0,1,2.538,21.022,5.235,5.235,0,0,1-1.5,3.162,6.083,6.083,0,0,1-3.023,1.723,249.956,249.956,0,0,1,9.725,35.192c2.165,10.518,4,21.951,5.772,35.983a435.124,435.124,0,0,1,3.339,51.17c.063,7.739-.067,15.539-.388,23.184l-.131,2.9c-.084,1.752-.152,3.544-.218,5.277a144.229,144.229,0,0,1-1.7,20.1c4.315,7.34,6.948,16.918,8.05,29.279a90.1,90.1,0,0,1-4.441,36.032,99.551,99.551,0,0,1-15.776,29.494,117.141,117.141,0,0,1-23.955,23.088,139.524,139.524,0,0,1-29.432,16.282,149.18,149.18,0,0,1-32.207,9.076A152.047,152.047,0,0,1,240.7,460.988ZM57.439,291.214a6.935,6.935,0,0,1-3.882-1.248c-4.194-2.811-7.032-7.168-9.777-11.381-.266-.407-.566-.869-.858-1.312l-.314-.476c-.272-.408-.542-.828-.8-1.234l-.006-.009a21.367,21.367,0,0,0-3.672-4.687l-.409-.358a5.747,5.747,0,0,0-2.092-1.242,4.027,4.027,0,0,0-1.09-.138,5.68,5.68,0,0,0-2.38.53,3.054,3.054,0,0,0-1.63,1.629l-.06.189a.792.792,0,0,1-.792.6.837.837,0,0,1-.868-.824,9.078,9.078,0,0,1,2.654-6.616,10.772,10.772,0,0,1,7.636-3.073,11.439,11.439,0,0,1,1.97.171c4.156.723,7.585,3.209,10.741,5.693l1.567,1.24.831.65.026.021c3.618,2.826,7.719,6.029,9.884,10.065a7.984,7.984,0,0,1-.369,7.911,8.524,8.524,0,0,1-2.688,2.8A6.744,6.744,0,0,1,57.439,291.214Z" transform="translate(50 55)"/>
      </g>
      <g id="face_Eating_Happy" data-name="face/Eating Happy" transform="translate(-12899.5 6914)">
        <path id="_Ink-3" data-name="ðŸ– Ink" d="M82.93,192.992c-3.282,0-6.488-2.46-7.8-5.983a8.462,8.462,0,0,1-.391-4.73,8.039,8.039,0,0,1,2.728-4.443l.248-.206a11.592,11.592,0,0,0,3.033-4.09A25.578,25.578,0,0,0,82.568,168a45.4,45.4,0,0,0,.927-11.062,43.143,43.143,0,0,0-2.1-11.465l-.251-.734c-.351-.995-3.9-9.761-5.537-9.761a.426.426,0,0,0-.285.11l-.069.071a.684.684,0,0,1-.526.272.712.712,0,0,1-.6-.373.746.746,0,0,1,.024-.771,3.84,3.84,0,0,1,3.256-2.189c1.782,0,4.9,1.473,9.629,8.492a59.357,59.357,0,0,1,5.9,10.913,51.219,51.219,0,0,1,2.239,10.508,31.28,31.28,0,0,0,6.83.746,34.406,34.406,0,0,0,6.455-.623c4.718-.905,8.149-2.99,11.781-5.2,1.456-.885,2.961-1.8,4.6-2.67a6.693,6.693,0,0,1,3.175-.778,9.618,9.618,0,0,1,7.849,4.635,7.954,7.954,0,0,1,.95,6.116,11.269,11.269,0,0,1-3.261,5.331,21.086,21.086,0,0,1-8.746,4.733,37.7,37.7,0,0,1-10.564,1.466,34.715,34.715,0,0,1-6.536-.593,33.4,33.4,0,0,1-12.332-5.047q-.011.2-.02.4c-.015.321-.031.653-.057.981l-.07.8a45.013,45.013,0,0,1-2.043,10.22,18.771,18.771,0,0,1-5.344,8.531A7.558,7.558,0,0,1,82.93,192.992ZM119.2,124.229h0a34.912,34.912,0,0,1-12.448-2.509,62.874,62.874,0,0,1-14.639-8.307,5.625,5.625,0,0,1-2.043-3.25,6.732,6.732,0,0,1,.29-3.649,8.3,8.3,0,0,1,2.464-3.562,6,6,0,0,1,3.841-1.5,5.449,5.449,0,0,1,2.971.912q.467.358.976.753l.025.019a79.254,79.254,0,0,0,9.165,6.373c4.141,2.357,7.734,3.5,10.984,3.5a11.861,11.861,0,0,0,4.641-.913,12.971,12.971,0,0,0,4.322-3.063,13.254,13.254,0,0,0,2.515-10.671,20.157,20.157,0,0,0-5.349-9.465,39,39,0,0,0-8.1-6.536,2.51,2.51,0,0,1-.68-2.886,3.768,3.768,0,0,1,1.248-1.8,3.829,3.829,0,0,1,2.391-.79,5.09,5.09,0,0,1,.86.076,27.157,27.157,0,0,1,9.55,3.45,21.663,21.663,0,0,1,6.423,5.922,23.526,23.526,0,0,1,4.1,15.718,25.9,25.9,0,0,1-2.1,8.25,24.071,24.071,0,0,1-4.734,7.089A22.626,22.626,0,0,1,119.2,124.229ZM20.815,71.261A1.18,1.18,0,0,1,19.74,70.6a16.656,16.656,0,0,1-2-8.343,19.586,19.586,0,0,1,2.056-8.113,26.537,26.537,0,0,1,7.64-9.265A24.831,24.831,0,0,1,38.178,39.94a27.122,27.122,0,0,1,4.722-.415,27.735,27.735,0,0,1,8.539,1.355,28.839,28.839,0,0,1,7.786,3.9l.463.333a29.539,29.539,0,0,1,8.018,8.469,14.093,14.093,0,0,1,1.9,5.27,10.064,10.064,0,0,1-.832,5.536,4.481,4.481,0,0,1-2.04,2.135,6.2,6.2,0,0,1-2.894.68,6.687,6.687,0,0,1-3.053-.72c-2.346-1.23-3.615-3.4-4.959-5.7a17.662,17.662,0,0,0-3.93-5.143,16.69,16.69,0,0,0-10.19-3.718c-.406,0-.814.018-1.211.054-4.3.391-8.2,2.558-11.592,6.443a38.6,38.6,0,0,0-6.685,11.847A1.546,1.546,0,0,1,20.815,71.261Zm155.5-2.517a7.973,7.973,0,0,1-4.447-1.333,6.907,6.907,0,0,1-2.807-3.96c-.277-1.021-.473-2.013-.663-2.972-.518-2.617-1.007-5.089-3.027-7.419a11.631,11.631,0,0,0-3.733-2.886,10.37,10.37,0,0,0-4.546-1.051c-.231,0-.466.008-.7.024a15.9,15.9,0,0,0-10.042,4.86,25.24,25.24,0,0,0-2.942,3.847,20.635,20.635,0,0,1-3.44,4.283,1.631,1.631,0,0,1-1.048.408,1.473,1.473,0,0,1-1.008-.408c-2.426-2.237-2.5-5.667-2.141-8.151a21.79,21.79,0,0,1,3.154-8.282,24.614,24.614,0,0,1,7.517-7.342,22.5,22.5,0,0,1,9.95-3.323c.525-.043,1.063-.065,1.6-.065,7.555,0,15.787,4.29,20.974,10.929,4.284,5.484,5.842,11.716,4.387,17.549a6.743,6.743,0,0,1-2.693,3.979A7.662,7.662,0,0,1,176.311,68.744ZM3.7,40.84a1.839,1.839,0,0,1-1.415-.6c-3.726-4.215-2.2-10.1-.258-14.291a41.059,41.059,0,0,1,9.233-12.476,56.514,56.514,0,0,1,13.978-8.9,41.586,41.586,0,0,1,16.626-4,23.328,23.328,0,0,1,7.174,1.063,9.544,9.544,0,0,1,4.818,3.666,11.159,11.159,0,0,1,2.042,5.712,7.7,7.7,0,0,1-4.614,7.813c-4.5,2.057-9.424,2.694-14.19,3.31-4.894.633-9.954,1.287-14.629,3.466-4.641,2.163-7.9,4.513-10.244,7.393-.425.522-.844,1.066-1.287,1.642-1.784,2.32-3.628,4.717-6.094,5.924A2.648,2.648,0,0,1,3.7,40.84Zm174.462-9.253a7.4,7.4,0,0,1-3.736-1.03c-2.477-1.429-4.211-3.752-5.889-6a31.083,31.083,0,0,0-3.813-4.485,33.181,33.181,0,0,0-10.028-6.229,34.6,34.6,0,0,0-12.521-2.47l-.248,0a31.637,31.637,0,0,0-5.922.763c-1.278.247-2.6.5-3.882.639a.139.139,0,0,1,0,.141c-.071.114-.345.174-.792.174a11.269,11.269,0,0,1-3.043-.511c-1.175-.5-1.072-1.973-.73-2.783.848-2,2.76-3.853,5.684-5.5a35.168,35.168,0,0,1,17.2-4.3,46.2,46.2,0,0,1,7.874.694,38.66,38.66,0,0,1,16.118,6.788l.539.4a38.454,38.454,0,0,1,7.426,6.972c2.386,3.074,3.522,6.164,3.377,9.184a8.009,8.009,0,0,1-2.417,5.386A7.458,7.458,0,0,1,178.159,31.588Z" transform="translate(52 62)"/>
      </g>
      <g id="facial-hair_Full" data-name="facial-hair/Full" transform="translate(-12947.5 7060.5)">
        <path id="_Ink-4" data-name="ðŸ– Ink" d="M226.9,208.51h0c-9.16,0-18.3-.89-26.367-1.675A298.485,298.485,0,0,1,133.817,192.2c-10.114-3.42-20.547-7.491-31.9-12.446-1.55-.675-3.139-1.359-4.675-2.02-8.842-3.805-17.985-7.74-26.17-12.67-7.021-4.232-13.11-10.462-19-16.487l-.009-.009c-1.023-1.046-2.08-2.128-3.108-3.163-12.983-13.067-22.328-23.537-30.3-33.947A109.829,109.829,0,0,1,7.654,94.668,61.7,61.7,0,0,1,1.46,75.647C-1.907,53.637,1.2,30.656,4.213,8.431c.237-1.75.482-3.559.719-5.336a.967.967,0,0,1,.927-.784.567.567,0,0,1,.569.413c-.02-.364-.04-.748-.067-1.244A1.366,1.366,0,0,1,6.72.45,1.544,1.544,0,0,1,7.84,0a1.518,1.518,0,0,1,1.5,1.076c6.07,20.14,15.911,37.7,29.25,52.195A161.15,161.15,0,0,0,52.227,66.385c4.493,3.863,9.348,7.675,14.843,11.653,10.206,7.389,21.1,14.225,31.642,20.836l.013.008c2.189,1.373,4.453,2.794,6.673,4.2a5.663,5.663,0,0,1,2.767-1.48,62.616,62.616,0,0,1,10-21.8,96.764,96.764,0,0,1,15.8-17.569C156.465,42.613,188.026,30.9,218.4,30.9a111.048,111.048,0,0,1,20.921,1.948,96.839,96.839,0,0,1,19.89,6.055,86.213,86.213,0,0,1,23.3,14.855A87.573,87.573,0,0,1,300.022,75.2a91.91,91.91,0,0,1,7.122,15.386c.863,2.429,7.592,29.628,3.35,45.214a116.555,116.555,0,0,1-8.414,21.764,134.085,134.085,0,0,1-12.35,19.883c-9.387,12.549-20.4,21.373-32.733,26.226a66.916,66.916,0,0,1-14.669,3.8A104.731,104.731,0,0,1,226.9,208.51ZM213.89,60.639a125.337,125.337,0,0,0-30.74,3.472,79.943,79.943,0,0,0-30.908,15.47A74.117,74.117,0,0,0,140.277,91.89a68.634,68.634,0,0,0-8.674,14.824,39.666,39.666,0,0,0,.353,13.992,103.733,103.733,0,0,0,26.883,13.656,93.534,93.534,0,0,0,29.662,4.915,88.075,88.075,0,0,0,10.185-.591c1.578-1.963,3.18-4.2,4.875-6.578a99.392,99.392,0,0,1,10.222-12.775c4.322-4.3,8.542-6.7,12.9-7.332a17.729,17.729,0,0,1,2.543-.187,19.254,19.254,0,0,1,10.592,3.443,68.583,68.583,0,0,1,9.115,7.589c3.308,3.088,6.728,6.281,10.473,8.431.57.326,1.218.663,1.98,1.03,8.342-.694,14.928-2.756,20.136-6.3a20.2,20.2,0,0,0,6.628-7.269,28.673,28.673,0,0,0,2.868-9.108c-.305-1.238-.642-2.5-1-3.759A97.313,97.313,0,0,0,285.4,93.007a71.384,71.384,0,0,0-6.674-11.894,45.322,45.322,0,0,0-7.671-8.547,34.762,34.762,0,0,0-9.756-5.953c-7.785-3.076-16.49-3.9-24.909-4.7l-1.985-.19C226.943,60.993,220.233,60.639,213.89,60.639Z" transform="translate(-0.004 0)"/>
      </g>
    </g>
  </g>
</svg>
